<?xml version="1.0" standalone="no"?>
<!DOCTYPE svg PUBLIC "-//W3C//DTD SVG 20010904//EN"
 "http://www.w3.org/TR/2001/REC-SVG-20010904/DTD/svg10.dtd">
<svg xmlns="http://www.w3.org/2000/svg"
     width="700.000000pt" height="700.000000pt" viewBox="0 0 700.000000 700.000000"
     preserveAspectRatio="xMidYMid meet">
<metadata>
Created by potrace 1.11, written by Peter Selinger 2001-2013
</metadata>
<g transform="translate(0.000000,700.000000) scale(0.100000,-0.100000)"
fill="#000000" stroke="none">
<path d="M3400 5683 c-100 -22 -275 -78 -295 -93 -5 -4 -32 -20 -60 -36 -65
-36 -128 -95 -177 -167 -38 -57 -98 -184 -112 -242 -4 -16 -10 -39 -13 -50
-12 -49 -14 -204 -3 -274 38 -235 184 -414 472 -580 78 -44 155 -86 453 -241
66 -34 170 -88 230 -120 61 -31 187 -97 280 -145 94 -48 207 -108 253 -132 45
-23 121 -64 170 -89 142 -75 302 -186 388 -270 266 -260 404 -594 408 -991 0
-79 4 -143 8 -143 8 0 98 120 131 175 36 58 117 233 151 326 69 186 105 339
134 566 9 76 9 465 -1 523 -76 455 -236 834 -487 1155 -135 173 -345 359 -544
483 -102 64 -315 172 -339 172 -7 0 -17 4 -23 10 -20 20 -288 100 -432 129
-292 60 -440 68 -592 34z"/>
<path d="M1849 4912 c-41 -42 -96 -104 -121 -137 -44 -59 -138 -201 -138 -210
0 -2 -13 -26 -28 -52 -71 -121 -189 -430 -228 -592 -46 -193 -61 -329 -59
-520 2 -170 6 -216 31 -356 13 -71 20 -107 39 -192 34 -148 166 -454 266 -615
174 -281 421 -543 669 -708 225 -151 547 -285 805 -336 11 -2 31 -6 45 -9 14
-3 52 -10 85 -15 33 -5 71 -12 85 -15 38 -8 381 -8 421 0 343 69 637 298 799
624 35 70 76 177 86 226 24 113 25 273 1 365 -31 119 -83 206 -182 306 -146
147 -245 206 -1020 604 -709 364 -843 438 -971 534 -173 129 -292 293 -415
571 -47 106 -77 268 -85 453 -3 81 -7 148 -8 149 -1 2 -36 -32 -77 -75z"/>
</g>
</svg>
